# xmcd CD database file
#
# Track frame offsets:
#	182
#	9807
#	27117
#	40307
#	52975
#	65330
#	76372
#	87185
#	95405
#	111120
#	124330
#	137165
#	149297
#	162100
#	175327
#	182320
#	189667
#	201495
#	214120
#	223760
#	238945
#	248522
#	258800
#	272977
#	282117
#	299562
#	307622
#
# Disc length: 4277 seconds
#
# Revision: 0
# Processed by: cddbd v1.5.1PL0 Copyright (c) Steve Scherf et al.
# Submitted via: CDex 1.51
#
DISCID=8210b31b
DTITLE=Lévis Bouliane - 40 ans de vie artistique
DYEAR=1900
DGENRE=Country
TTITLE0=Plus qu'hier moins que demain
TTITLE1=Je brûle tes lettres d'amour
TTITLE2=Je roule et je chante ma vie
TTITLE3=Le reel des bercethons
TTITLE4=Congaciero
TTITLE5=Sans toi je suis si délaissé
TTITLE6=Le chemin du prisonnier
TTITLE7=Fleur sauvage
TTITLE8=Des roses pour maman
TTITLE9=Mon seul amour c'est toi
TTITLE10=Ne m'éveillez pas la nuit
TTITLE11=Amour fané
TTITLE12=Toi qui connais ma douleur
TTITLE13=C'est l'automne dans mon coeur
TTITLE14=Jour et nuit je t'attendrai
TTITLE15=Reel Ste-Anne
TTITLE16=Je veux t'aimer une autre fois
TTITLE17=À ma fenêtre
TTITLE18=Je te rejoindrai
TTITLE19=Peine d'un coeur
TTITLE20=Les filles d'aujourd'hui
TTITLE21=Reviens chez nous
TTITLE22=À la gare de mon village
TTITLE23=J'ai besoin de ton amour
TTITLE24=L'orphelin de Noël
TTITLE25=Reel du coq
TTITLE26=Guide-moi vers ma maison
EXTD=
EXTT0=
EXTT1=
EXTT2=
EXTT3=
EXTT4=
EXTT5=
EXTT6=
EXTT7=
EXTT8=
EXTT9=
EXTT10=
EXTT11=
EXTT12=
EXTT13=
EXTT14=
EXTT15=
EXTT16=
EXTT17=
EXTT18=
EXTT19=
EXTT20=
EXTT21=
EXTT22=
EXTT23=
EXTT24=
EXTT25=
EXTT26=
PLAYORDER=
